<svg width="16" height="8" viewBox="0 0 16 8" fill="none" xmlns="http://www.w3.org/2000/svg">
<path d="M15.5212 0.231163C15.249 0.0624013 14.899 -0.0188486 14.5472 0.00511366C14.1955 0.0290759 13.8707 0.156309 13.6435 0.359094L8.00007 5.43742L2.35658 0.359177C2.13003 0.155596 1.80493 0.02785 1.4528 0.00404111C1.10067 -0.0197678 0.750348 0.0623109 0.478906 0.232221C0.207463 0.402131 0.0371335 0.645954 0.00538817 0.910052C-0.0263572 1.17415 0.083082 1.43689 0.30963 1.64047L6.97659 7.64063C7.10166 7.75311 7.25816 7.84361 7.43502 7.90571C7.61188 7.96781 7.80478 8 8.00007 8C8.19535 8 8.38825 7.96781 8.56511 7.90571C8.74197 7.84361 8.89848 7.75311 9.02354 7.64063L15.6905 1.64039C15.917 1.4366 16.0264 1.17373 15.9946 0.909511C15.9629 0.64529 15.7926 0.401315 15.5212 0.231163Z" fill="#114232"/>
</svg>
